<?xml version="1.0" encoding="UTF-8" standalone="no"?>
<!-- Created with Inkscape (http://www.inkscape.org/) -->

<svg
   xmlns:dc="http://purl.org/dc/elements/1.1/"
   xmlns:cc="http://creativecommons.org/ns#"
   xmlns:rdf="http://www.w3.org/1999/02/22-rdf-syntax-ns#"
   xmlns:svg="http://www.w3.org/2000/svg"
   xmlns="http://www.w3.org/2000/svg"
   xmlns:sodipodi="http://sodipodi.sourceforge.net/DTD/sodipodi-0.dtd"
   xmlns:inkscape="http://www.inkscape.org/namespaces/inkscape"
   version="1.1"
   id="svg2"
   xml:space="preserve"
   width="937.84894"
   height="345.06238"
   viewBox="0 0 937.84894 345.06238"
   sodipodi:docname="data4development-white.svg"
   inkscape:version="0.92.4 (5da689c313, 2019-01-14)"><metadata
     id="metadata8"><rdf:RDF><cc:Work
         rdf:about=""><dc:format>image/svg+xml</dc:format><dc:type
           rdf:resource="http://purl.org/dc/dcmitype/StillImage" /><dc:title></dc:title></cc:Work></rdf:RDF></metadata><defs
     id="defs6"><clipPath
       clipPathUnits="userSpaceOnUse"
       id="clipPath18"><path
         d="M 0,648 H 1152 V 0 H 0 Z"
         id="path16"
         inkscape:connector-curvature="0" /></clipPath><clipPath
       clipPathUnits="userSpaceOnUse"
       id="clipPath90"><path
         d="m 551.354,449.738 -77.248,-76.988 -0.261,-30.638 h 88.507 v -26.97 h 31.427 v 26.97 h 21.734 v 31.424 h -21.734 v 76.202 z m 10.998,-30.116 v -46.086 h -48.967 z"
         id="path88"
         inkscape:connector-curvature="0" /></clipPath><linearGradient
       x1="0"
       y1="0"
       x2="1"
       y2="0"
       gradientUnits="userSpaceOnUse"
       gradientTransform="matrix(-1.15e-5,261.95996,261.95996,1.15e-5,544.6792,281.24609)"
       spreadMethod="pad"
       id="linearGradient100"><stop
         style="stop-opacity:1;stop-color:#0074c2"
         offset="0"
         id="stop96" /><stop
         style="stop-opacity:1;stop-color:#004c91"
         offset="1"
         id="stop98" /></linearGradient><clipPath
       clipPathUnits="userSpaceOnUse"
       id="clipPath110"><path
         d="M 380.058,449.738 V 418.314 H 484.25 c 7.554,0 11.518,-3.336 11.982,-9.921 v 0 l 23.692,23.61 c -1.436,1.951 -3.039,3.825 -4.874,5.582 v 0 c -8.469,8.102 -18.813,12.153 -31.032,12.153 v 0 z"
         id="path108"
         inkscape:connector-curvature="0" /></clipPath><linearGradient
       x1="0"
       y1="0"
       x2="1"
       y2="0"
       gradientUnits="userSpaceOnUse"
       gradientTransform="matrix(-1.15e-5,261.9639,261.9639,1.15e-5,449.99121,281.24414)"
       spreadMethod="pad"
       id="linearGradient120"><stop
         style="stop-opacity:1;stop-color:#2c781a"
         offset="0"
         id="stop116" /><stop
         style="stop-opacity:1;stop-color:#3bab17"
         offset="1"
         id="stop118" /></linearGradient><clipPath
       clipPathUnits="userSpaceOnUse"
       id="clipPath130"><path
         d="m 380.058,399.982 v -84.84 h 103.96 c 12.219,0 22.563,4.048 31.032,12.153 v 0 c 2.251,2.154 4.18,4.464 5.836,6.908 v 0 h -54.249 l 0.108,12.364 h -55.263 v 53.415 z"
         id="path128"
         inkscape:connector-curvature="0" /></clipPath><linearGradient
       x1="0"
       y1="0"
       x2="1"
       y2="0"
       gradientUnits="userSpaceOnUse"
       gradientTransform="matrix(-1.15e-5,261.95486,261.95486,1.15e-5,450.47217,281.24707)"
       spreadMethod="pad"
       id="linearGradient140"><stop
         style="stop-opacity:1;stop-color:#2c781a"
         offset="0"
         id="stop136" /><stop
         style="stop-opacity:1;stop-color:#3bab17"
         offset="1"
         id="stop138" /></linearGradient><clipPath
       clipPathUnits="userSpaceOnUse"
       id="clipPath150"><path
         d="m 604.253,449.738 v -31.424 h 124.193 c 8.046,0 12.071,-3.738 12.071,-11.22 v 0 -49.308 c 0,-7.482 -4.031,-11.219 -12.083,-11.219 v 0 h -72.761 v 53.415 h -31.425 v -84.84 H 728.21 c 12.216,0 22.56,4.048 31.029,12.153 v 0 c 8.464,8.098 12.703,18.247 12.703,30.446 v 0 49.396 c 0,12.196 -4.239,22.35 -12.703,30.448 v 0 c -8.469,8.102 -18.813,12.153 -31.029,12.153 v 0 z"
         id="path148"
         inkscape:connector-curvature="0" /></clipPath><linearGradient
       x1="0"
       y1="0"
       x2="1"
       y2="0"
       gradientUnits="userSpaceOnUse"
       gradientTransform="matrix(-1.15e-5,261.95996,261.95996,1.15e-5,688.09766,281.24609)"
       spreadMethod="pad"
       id="linearGradient160"><stop
         style="stop-opacity:1;stop-color:#2c781a"
         offset="0"
         id="stop156" /><stop
         style="stop-opacity:1;stop-color:#3bab17"
         offset="1"
         id="stop158" /></linearGradient><clipPath
       clipPathUnits="userSpaceOnUse"
       id="clipPath170"><path
         d="M 0,648 H 1152 V 0 H 0 Z"
         id="path168"
         inkscape:connector-curvature="0" /></clipPath></defs><sodipodi:namedview
     pagecolor="#ffffff"
     bordercolor="#666666"
     borderopacity="1"
     objecttolerance="10"
     gridtolerance="10"
     guidetolerance="10"
     inkscape:pageopacity="0"
     inkscape:pageshadow="2"
     inkscape:window-width="3840"
     inkscape:window-height="2096"
     id="namedview4"
     showgrid="false"
     inkscape:zoom="0.74761811"
     inkscape:cx="513.00672"
     inkscape:cy="168.19788"
     inkscape:window-x="1920"
     inkscape:window-y="28"
     inkscape:window-maximized="1"
     inkscape:current-layer="g10" /><g
     id="g10"
     inkscape:groupmode="layer"
     inkscape:label="Data4development"
     transform="matrix(1.3333333,0,0,-1.3333333,-299.07559,599.65065)"><g
       id="g12"
       style="fill:#ffffff;fill-opacity:1"><g
         id="g14"
         clip-path="url(#clipPath18)"
         style="fill:#ffffff;fill-opacity:1"><g
           id="g20"
           transform="translate(235.9687,241.125)"
           style="fill:#ffffff;fill-opacity:1"><path
             d="m 0,0 h 9.637 c 5.519,0 9.575,1.462 12.169,4.394 2.478,2.704 3.718,7.438 3.718,14.198 0,6.534 -1.182,11.325 -3.547,14.366 -2.257,3.044 -5.864,4.566 -10.819,4.566 H 0 Z m -11.662,-10.483 v 52.062 c 0,1.691 0.592,3.126 1.774,4.31 1.184,1.185 2.622,1.776 4.311,1.776 h 16.735 c 8.901,0 15.55,-2.367 19.944,-7.1 4.395,-4.961 6.593,-12.283 6.593,-21.973 0,-5.186 -0.79,-9.862 -2.366,-14.03 -1.806,-4.285 -4.171,-7.549 -7.1,-9.802 -2.481,-1.919 -5.13,-3.271 -7.944,-4.058 -2.704,-0.789 -6.82,-1.185 -12.339,-1.185 z"
             style="fill:#ffffff;fill-opacity:1;fill-rule:nonzero;stroke:none"
             id="path22"
             inkscape:connector-curvature="0" /></g><g
           id="g24"
           transform="translate(305.4263,253.293)"
           style="fill:#ffffff;fill-opacity:1"><path
             d="M 0,0 C -1.579,-0.789 -3.777,-1.52 -6.594,-2.197 L -10.48,-3.04 c -2.027,-0.565 -3.494,-1.3 -4.396,-2.198 -0.789,-1.243 -1.181,-2.481 -1.181,-3.718 0,-1.691 0.506,-3.044 1.52,-4.06 1.014,-0.902 2.478,-1.35 4.395,-1.35 3.154,0 5.634,0.9 7.437,2.705 1.801,1.8 2.705,4.278 2.705,7.437 z m 2.705,-20.789 c -2.366,-1.242 -4.876,-2 -7.522,-2.283 -2.648,-0.28 -4.988,-0.422 -7.015,-0.422 -4.057,0 -7.608,1.099 -10.648,3.298 -3.043,2.195 -4.564,5.83 -4.564,10.898 0,4.735 1.379,8.114 4.14,10.145 2.76,2.029 6.281,3.379 10.565,4.057 0.563,0 1.237,0.084 2.027,0.252 0.787,0.168 1.691,0.308 2.705,0.422 4.959,0.675 7.439,2.139 7.439,4.397 0,1.687 -0.875,2.787 -2.622,3.294 -1.747,0.505 -3.353,0.762 -4.817,0.762 -1.579,0 -2.988,-0.23 -4.225,-0.678 -1.241,-0.451 -2.142,-1.296 -2.705,-2.534 h -11.325 c 0.45,3.489 2.029,6.365 4.734,8.621 3.041,2.59 7.378,3.887 13.014,3.887 6.311,0 11.043,-1.073 14.198,-3.212 3.268,-2.255 4.903,-5.409 4.903,-9.466 v -15.38 c 0,-4.508 -0.819,-8.029 -2.451,-10.565 -1.635,-2.537 -3.58,-4.367 -5.831,-5.493"
             style="fill:#ffffff;fill-opacity:1;fill-rule:nonzero;stroke:none"
             id="path26"
             inkscape:connector-curvature="0" /></g><g
           id="g28"
           transform="translate(342.2568,230.6416)"
           style="fill:#ffffff;fill-opacity:1"><path
             d="m 0,0 c -3.721,-0.224 -7.751,-0.168 -12.085,0.172 -4.34,0.336 -6.509,3.099 -6.509,8.281 v 49.695 h 6.084 c 1.465,0 2.761,-0.565 3.889,-1.69 1.126,-1.128 1.688,-2.481 1.688,-4.057 V 44.796 H 0 V 42.428 C 0,40.736 -0.565,39.355 -1.69,38.287 -2.819,37.216 -4.172,36.683 -5.748,36.683 H -6.933 V 11.665 c 0,-1.917 1.126,-2.873 3.383,-2.873 H 0 Z"
             style="fill:#ffffff;fill-opacity:1;fill-rule:nonzero;stroke:none"
             id="path30"
             inkscape:connector-curvature="0" /></g><g
           id="g32"
           transform="translate(373.0645,253.293)"
           style="fill:#ffffff;fill-opacity:1"><path
             d="m 0,0 c -1.579,-0.789 -3.776,-1.52 -6.594,-2.197 l -3.885,-0.843 c -2.028,-0.565 -3.495,-1.3 -4.396,-2.198 -0.79,-1.243 -1.182,-2.481 -1.182,-3.718 0,-1.691 0.506,-3.044 1.52,-4.06 1.014,-0.902 2.478,-1.35 4.396,-1.35 3.153,0 5.633,0.9 7.436,2.705 1.801,1.8 2.705,4.278 2.705,7.437 z m 2.705,-20.789 c -2.366,-1.242 -4.876,-2 -7.522,-2.283 -2.648,-0.28 -4.988,-0.422 -7.015,-0.422 -4.057,0 -7.607,1.099 -10.647,3.298 -3.044,2.195 -4.564,5.83 -4.564,10.898 0,4.735 1.378,8.114 4.139,10.145 2.76,2.029 6.281,3.379 10.565,4.057 0.563,0 1.237,0.084 2.027,0.252 0.787,0.168 1.692,0.308 2.705,0.422 4.959,0.675 7.439,2.139 7.439,4.397 0,1.687 -0.874,2.787 -2.622,3.294 -1.747,0.505 -3.353,0.762 -4.817,0.762 -1.579,0 -2.987,-0.23 -4.225,-0.678 -1.24,-0.451 -2.142,-1.296 -2.705,-2.534 h -11.325 c 0.45,3.489 2.03,6.365 4.734,8.621 3.041,2.59 7.378,3.887 13.015,3.887 6.31,0 11.042,-1.073 14.197,-3.212 3.268,-2.255 4.903,-5.409 4.903,-9.466 v -15.38 c 0,-4.508 -0.819,-8.029 -2.451,-10.565 -1.636,-2.537 -3.58,-4.367 -5.831,-5.493"
             style="fill:#ffffff;fill-opacity:1;fill-rule:nonzero;stroke:none"
             id="path34"
             inkscape:connector-curvature="0" /></g><g
           id="g36"
           transform="translate(414.6299,252.7861)"
           style="fill:#ffffff;fill-opacity:1"><path
             d="M 0,0 V 25.692 L -16.228,0 Z M -0.17,-22.145 V -9.128 H -25.523 V 1.354 l 22.141,34.65 h 8.791 c 1.689,0 3.097,-0.591 4.226,-1.776 1.125,-1.184 1.744,-2.564 1.859,-4.139 V 26.538 0.336 h 6.929 v -9.464 h -6.929 v -13.017 z"
             style="fill:#ffffff;fill-opacity:1;fill-rule:nonzero;stroke:none"
             id="path38"
             inkscape:connector-curvature="0" /></g><g
           id="g40"
           transform="translate(450.8257,241.125)"
           style="fill:#ffffff;fill-opacity:1"><path
             d="m 0,0 h 9.637 c 5.519,0 9.576,1.462 12.169,4.394 2.478,2.704 3.717,7.438 3.717,14.198 0,6.534 -1.181,11.325 -3.547,14.366 -2.256,3.044 -5.863,4.566 -10.819,4.566 H 0 Z m -11.662,-10.483 v 52.062 c 0,1.691 0.593,3.126 1.774,4.31 1.185,1.185 2.622,1.776 4.311,1.776 h 16.734 c 8.902,0 15.551,-2.367 19.944,-7.1 4.396,-4.961 6.594,-12.283 6.594,-21.973 0,-5.186 -0.79,-9.862 -2.366,-14.03 -1.806,-4.285 -4.172,-7.549 -7.1,-9.802 -2.481,-1.919 -5.13,-3.271 -7.944,-4.058 -2.704,-0.789 -6.82,-1.185 -12.339,-1.185 z"
             style="fill:#ffffff;fill-opacity:1;fill-rule:nonzero;stroke:none"
             id="path42"
             inkscape:connector-curvature="0" /></g><g
           id="g44"
           transform="translate(505.4473,257.6885)"
           style="fill:#ffffff;fill-opacity:1"><path
             d="M 0,0 H 17.242 C 17.015,3.042 16.226,5.296 14.875,6.76 13.409,8.339 11.326,9.128 8.621,9.128 6.141,9.128 4.113,8.339 2.537,6.76 0.955,5.182 0.112,2.93 0,0 m 20.283,-13.184 h 8.452 c -1.242,-4.735 -3.608,-8.34 -7.1,-10.819 -3.494,-2.592 -7.887,-3.887 -13.184,-3.887 -6.424,0 -11.438,2.084 -15.042,6.254 -3.608,4.057 -5.409,9.858 -5.409,17.412 0,7.207 1.745,12.845 5.238,16.9 3.607,4.169 8.621,6.256 15.045,6.256 6.761,0 12,-2.031 15.718,-6.085 3.606,-4.172 5.41,-9.973 5.41,-17.413 v -1.181 -0.675 c 0,-0.565 -0.059,-0.96 -0.168,-1.184 L 0,-7.606 c 0.112,-3.495 0.955,-6.087 2.537,-7.776 1.462,-1.805 3.66,-2.705 6.591,-2.705 1.915,0 3.55,0.392 4.902,1.183 0.336,0.112 0.646,0.308 0.929,0.591 0.28,0.283 0.592,0.592 0.931,0.931 0.109,0.339 0.533,0.787 1.266,1.352 0.732,0.563 1.774,0.846 3.127,0.846"
             style="fill:#ffffff;fill-opacity:1;fill-rule:nonzero;stroke:none"
             id="path46"
             inkscape:connector-curvature="0" /></g><g
           id="g48"
           transform="translate(564.7075,230.6416)"
           style="fill:#ffffff;fill-opacity:1"><path
             d="m 0,0 h -12.003 l -15.719,44.964 h 12.508 l 8.96,-31.61 7.943,27.552 c 0.901,2.706 2.704,4.058 5.409,4.058 h 8.789 z"
             style="fill:#ffffff;fill-opacity:1;fill-rule:nonzero;stroke:none"
             id="path50"
             inkscape:connector-curvature="0" /></g><g
           id="g52"
           transform="translate(594.3281,257.6885)"
           style="fill:#ffffff;fill-opacity:1"><path
             d="M 0,0 H 17.242 C 17.016,3.042 16.227,5.296 14.877,6.76 13.41,8.339 11.326,9.128 8.622,9.128 6.14,9.128 4.113,8.339 2.537,6.76 0.956,5.182 0.112,2.93 0,0 m 20.282,-13.184 h 8.453 c -1.243,-4.735 -3.608,-8.34 -7.098,-10.819 -3.496,-2.592 -7.888,-3.887 -13.187,-3.887 -6.424,0 -11.438,2.084 -15.041,6.254 -3.608,4.057 -5.41,9.858 -5.41,17.412 0,7.207 1.745,12.845 5.238,16.9 3.609,4.169 8.623,6.256 15.047,6.256 6.76,0 11.998,-2.031 15.718,-6.085 3.605,-4.172 5.408,-9.973 5.408,-17.413 v -1.181 -0.675 c 0,-0.565 -0.057,-0.96 -0.167,-1.184 L 0,-7.606 c 0.112,-3.495 0.956,-6.087 2.537,-7.776 1.462,-1.805 3.66,-2.705 6.591,-2.705 1.914,0 3.55,0.392 4.902,1.183 0.336,0.112 0.646,0.308 0.93,0.591 0.279,0.283 0.592,0.592 0.931,0.931 0.109,0.339 0.533,0.787 1.265,1.352 0.732,0.563 1.774,0.846 3.126,0.846"
             style="fill:#ffffff;fill-opacity:1;fill-rule:nonzero;stroke:none"
             id="path54"
             inkscape:connector-curvature="0" /></g><g
           id="g56"
           transform="translate(629.9639,288.79)"
           style="fill:#ffffff;fill-opacity:1"><path
             d="m 0,0 h 6.085 c 1.578,0 2.928,-0.538 4.056,-1.605 1.128,-1.073 1.693,-2.396 1.693,-3.974 V -58.148 H 0 Z"
             style="fill:#ffffff;fill-opacity:1;fill-rule:nonzero;stroke:none"
             id="path58"
             inkscape:connector-curvature="0" /></g><g
           id="g60"
           transform="translate(662.1992,264.4482)"
           style="fill:#ffffff;fill-opacity:1"><path
             d="m 0,0 c -2.365,-2.593 -3.438,-6.449 -3.212,-11.576 0.225,-5.132 1.183,-8.707 2.874,-10.734 0.677,-0.904 1.859,-1.664 3.55,-2.283 1.69,-0.619 3.405,-0.678 5.155,-0.168 1.745,0.507 3.295,1.774 4.648,3.801 1.351,2.03 2.086,5.297 2.198,9.805 0,4.057 -0.649,7.1 -1.945,9.128 C 11.97,0 10.479,1.296 8.789,1.861 7.099,2.422 5.408,2.451 3.718,1.945 2.027,1.438 0.787,0.79 0,0 m -8.114,-29.747 c -2.365,2.028 -4.056,4.76 -5.072,8.198 -1.013,3.435 -1.518,7.013 -1.518,10.731 0,3.046 0.422,6.087 1.266,9.127 0.846,3.045 2.169,5.581 3.972,7.607 2.928,3.383 6.702,5.381 11.326,6.002 4.619,0.618 8.789,0.254 12.506,-1.1 4.28,-1.69 7.44,-4.619 9.467,-8.789 1.914,-3.72 2.873,-8.056 2.873,-13.012 0,-3.61 -0.396,-6.706 -1.183,-9.3 -0.789,-2.592 -1.805,-4.79 -3.043,-6.593 -2.703,-3.719 -6.142,-6.027 -10.309,-6.931 -3.72,-1.012 -7.469,-1.097 -11.243,-0.25 -3.775,0.843 -6.788,2.282 -9.042,4.31"
             style="fill:#ffffff;fill-opacity:1;fill-rule:nonzero;stroke:none"
             id="path62"
             inkscape:connector-curvature="0" /></g><g
           id="g64"
           transform="translate(725.3086,252.957)"
           style="fill:#ffffff;fill-opacity:1"><path
             d="m 0,0 c 0,4.394 -0.846,7.773 -2.534,10.143 -1.691,2.362 -4.116,3.545 -7.268,3.545 -3.045,0 -5.41,-1.183 -7.101,-3.545 C -18.481,7.997 -19.269,4.617 -19.269,0 c 0,-4.286 0.845,-7.497 2.536,-9.637 1.69,-2.365 4.11,-3.551 7.27,-3.551 2.928,0 5.238,1.186 6.929,3.551 C -0.846,-7.271 0,-4.06 0,0 m -19.269,-33.131 c 0,-1.576 -0.565,-2.928 -1.692,-4.057 -1.126,-1.125 -2.477,-1.691 -4.054,-1.691 h -5.749 V 3.212 c 0,7.885 2.308,13.267 6.932,16.14 4.618,2.874 9.633,4.311 15.043,4.311 2.816,0 5.664,-0.536 8.537,-1.606 2.87,-1.073 5.155,-2.621 6.846,-4.65 3.378,-4.395 5.071,-10.029 5.071,-16.899 0,-7.101 -1.693,-12.846 -5.071,-17.242 -3.382,-4.284 -7.722,-6.424 -13.018,-6.424 -2.815,0 -5.298,0.507 -7.436,1.521 -2.256,1.125 -4.056,2.875 -5.409,5.239 z"
             style="fill:#ffffff;fill-opacity:1;fill-rule:nonzero;stroke:none"
             id="path66"
             inkscape:connector-curvature="0" /></g><g
           id="g68"
           transform="translate(781.9346,230.6416)"
           style="fill:#ffffff;fill-opacity:1"><path
             d="m 0,0 h -11.662 v 26.37 2.369 c 0,2.701 -0.82,4.673 -2.451,5.913 -1.636,1.241 -3.465,1.859 -5.494,1.859 -2.029,0 -3.831,-0.618 -5.408,-1.859 -1.579,-1.24 -2.368,-3.212 -2.368,-5.913 V 0 h -11.831 v 26.37 c 0,7.661 2,12.787 6.001,15.381 3.999,2.592 8.422,4 13.268,4.228 2.591,0 5.126,-0.285 7.608,-0.847 2.475,-0.566 4.731,-1.691 6.76,-3.381 1.69,1.467 3.691,2.507 5.999,3.128 2.31,0.619 4.708,0.983 7.184,1.1 4.957,0 9.522,-1.297 13.692,-3.887 4.168,-2.596 6.255,-7.837 6.255,-15.722 V 0 H 21.637 C 19.946,0 18.563,0.534 17.495,1.606 16.422,2.68 15.888,4.06 15.888,5.749 v 22.99 c 0,2.701 -0.819,4.673 -2.449,5.913 -1.636,1.241 -3.467,1.859 -5.494,1.859 -2.026,0 -3.863,-0.618 -5.494,-1.859 C 0.818,33.412 0,31.44 0,28.739 V 26.37 Z"
             style="fill:#ffffff;fill-opacity:1;fill-rule:nonzero;stroke:none"
             id="path70"
             inkscape:connector-curvature="0" /></g><g
           id="g72"
           transform="translate(827.3203,257.6885)"
           style="fill:#ffffff;fill-opacity:1"><path
             d="M 0,0 H 17.242 C 17.016,3.042 16.227,5.296 14.877,6.76 13.41,8.339 11.326,9.128 8.622,9.128 6.14,9.128 4.113,8.339 2.537,6.76 0.956,5.182 0.112,2.93 0,0 m 20.282,-13.184 h 8.453 c -1.243,-4.735 -3.608,-8.34 -7.098,-10.819 -3.496,-2.592 -7.888,-3.887 -13.187,-3.887 -6.424,0 -11.437,2.084 -15.04,6.254 -3.608,4.057 -5.411,9.858 -5.411,17.412 0,7.207 1.745,12.845 5.238,16.9 3.609,4.169 8.623,6.256 15.047,6.256 6.76,0 11.998,-2.031 15.718,-6.085 3.605,-4.172 5.408,-9.973 5.408,-17.413 v -1.181 -0.675 c 0,-0.565 -0.057,-0.96 -0.167,-1.184 L 0,-7.606 c 0.112,-3.495 0.956,-6.087 2.537,-7.776 1.462,-1.805 3.66,-2.705 6.591,-2.705 1.914,0 3.551,0.392 4.902,1.183 0.336,0.112 0.646,0.308 0.93,0.591 0.279,0.283 0.592,0.592 0.931,0.931 0.109,0.339 0.533,0.787 1.265,1.352 0.732,0.563 1.774,0.846 3.126,0.846"
             style="fill:#ffffff;fill-opacity:1;fill-rule:nonzero;stroke:none"
             id="path74"
             inkscape:connector-curvature="0" /></g><g
           id="g76"
           transform="translate(901.5869,230.6416)"
           style="fill:#ffffff;fill-opacity:1"><path
             d="m 0,0 h -5.916 c -1.69,0 -3.071,0.534 -4.142,1.606 -1.073,1.074 -1.604,2.454 -1.604,4.143 v 22.99 c 0,2.701 -0.82,4.673 -2.454,5.913 -1.633,1.241 -3.465,1.859 -5.491,1.859 -2.03,0 -3.832,-0.618 -5.408,-1.859 -1.582,-1.24 -2.368,-3.212 -2.368,-5.913 V 0 h -11.832 v 26.37 c 0,7.661 2.001,12.787 6.002,15.381 3.999,2.592 8.422,4 13.267,4.228 4.96,0 9.523,-1.297 13.691,-3.887 C -2.087,39.496 0,34.255 0,26.37 Z"
             style="fill:#ffffff;fill-opacity:1;fill-rule:nonzero;stroke:none"
             id="path78"
             inkscape:connector-curvature="0" /></g><g
           id="g80"
           transform="translate(927.6934,230.6416)"
           style="fill:#ffffff;fill-opacity:1"><path
             d="m 0,0 c -3.723,-0.224 -7.752,-0.168 -12.087,0.172 -4.34,0.336 -6.507,3.099 -6.507,8.281 v 49.695 h 6.082 c 1.467,0 2.762,-0.565 3.89,-1.69 1.125,-1.128 1.69,-2.481 1.69,-4.057 V 44.796 H 0 V 42.428 C 0,40.736 -0.565,39.355 -1.69,38.287 -2.821,37.216 -4.173,36.683 -5.749,36.683 H -6.932 V 11.665 c 0,-1.917 1.125,-2.873 3.381,-2.873 H 0 Z"
             style="fill:#ffffff;fill-opacity:1;fill-rule:nonzero;stroke:none"
             id="path82"
             inkscape:connector-curvature="0" /></g></g></g><g
       id="g84"
       style="fill:#ffffff;fill-opacity:1"><g
         id="g86"
         clip-path="url(#clipPath90)"
         style="fill:#ffffff;fill-opacity:1"><g
           id="g92"
           style="fill:#ffffff;fill-opacity:1"><g
             id="g94"
             style="fill:#ffffff;fill-opacity:1"><path
               d="m 551.354,449.738 -77.248,-76.988 -0.261,-30.638 h 88.507 v -26.97 h 31.427 v 26.97 h 21.734 v 31.424 h -21.734 v 76.202 z m 10.998,-30.116 v -46.086 h -48.967 z"
               style="fill:#ffffff;fill-opacity:1;stroke:none"
               id="path102"
               inkscape:connector-curvature="0" /></g></g></g></g><g
       id="g104"
       style="fill:#ffffff;fill-opacity:1"><g
         id="g106"
         clip-path="url(#clipPath110)"
         style="fill:#ffffff;fill-opacity:1"><g
           id="g112"
           style="fill:#ffffff;fill-opacity:1"><g
             id="g114"
             style="fill:#ffffff;fill-opacity:1"><path
               d="M 380.058,449.738 V 418.314 H 484.25 c 7.554,0 11.518,-3.336 11.982,-9.921 v 0 l 23.692,23.61 c -1.436,1.951 -3.039,3.825 -4.874,5.582 v 0 c -8.469,8.102 -18.813,12.153 -31.032,12.153 v 0 z"
               style="fill:#ffffff;fill-opacity:1;stroke:none"
               id="path122"
               inkscape:connector-curvature="0" /></g></g></g></g><g
       id="g124"
       style="fill:#ffffff;fill-opacity:1"><g
         id="g126"
         clip-path="url(#clipPath130)"
         style="fill:#ffffff;fill-opacity:1"><g
           id="g132"
           style="fill:#ffffff;fill-opacity:1"><g
             id="g134"
             style="fill:#ffffff;fill-opacity:1"><path
               d="m 380.058,399.982 v -84.84 h 103.96 c 12.219,0 22.563,4.048 31.032,12.153 v 0 c 2.251,2.154 4.18,4.464 5.836,6.908 v 0 h -54.249 l 0.108,12.364 h -55.263 v 53.415 z"
               style="fill:#ffffff;fill-opacity:1;stroke:none"
               id="path142"
               inkscape:connector-curvature="0" /></g></g></g></g><g
       id="g144"
       style="fill:#ffffff;fill-opacity:1"><g
         id="g146"
         clip-path="url(#clipPath150)"
         style="fill:#ffffff;fill-opacity:1"><g
           id="g152"
           style="fill:#ffffff;fill-opacity:1"><g
             id="g154"
             style="fill:#ffffff;fill-opacity:1"><path
               d="m 604.253,449.738 v -31.424 h 124.193 c 8.046,0 12.071,-3.738 12.071,-11.22 v 0 -49.308 c 0,-7.482 -4.031,-11.219 -12.083,-11.219 v 0 h -72.761 v 53.415 h -31.425 v -84.84 H 728.21 c 12.216,0 22.56,4.048 31.029,12.153 v 0 c 8.464,8.098 12.703,18.247 12.703,30.446 v 0 49.396 c 0,12.196 -4.239,22.35 -12.703,30.448 v 0 c -8.469,8.102 -18.813,12.153 -31.029,12.153 v 0 z"
               style="fill:#ffffff;fill-opacity:1;stroke:none"
               id="path162"
               inkscape:connector-curvature="0" /></g></g></g></g><g
       id="g164"
       style="fill:#ffffff;fill-opacity:1"><g
         id="g166"
         clip-path="url(#clipPath170)"
         style="fill:#ffffff;fill-opacity:1"><g
           id="g172"
           transform="translate(322.3091,193.2324)"
           style="fill:#ffffff;fill-opacity:1"><path
             d="M 0,0 H 7.952 V -1.877 H -2.118 V 13.804 H 0 Z"
             style="fill:#ffffff;fill-opacity:1;fill-rule:nonzero;stroke:none"
             id="path174"
             inkscape:connector-curvature="0" /></g><g
           id="g176"
           transform="translate(348.5718,191.3555)"
           style="fill:#ffffff;fill-opacity:1"><path
             d="M 0,0 H -11.574 V 15.681 H -0.152 V 13.804 H -9.456 V 8.996 h 8.583 V 7.119 H -9.456 V 1.877 H 0 Z"
             style="fill:#ffffff;fill-opacity:1;fill-rule:nonzero;stroke:none"
             id="path178"
             inkscape:connector-curvature="0" /></g><g
           id="g180"
           transform="translate(364.2051,197.7969)"
           style="fill:#ffffff;fill-opacity:1"><path
             d="M 0,0 -2.315,6.902 H -2.357 L -4.871,0 Z m -5.526,-1.877 -1.639,-4.564 h -2.181 l 5.895,15.68 h 2.403 L 4.63,-6.441 H 2.314 l -1.55,4.564 z"
             style="fill:#ffffff;fill-opacity:1;fill-rule:nonzero;stroke:none"
             id="path182"
             inkscape:connector-curvature="0" /></g><g
           id="g184"
           transform="translate(377.5713,193.166)"
           style="fill:#ffffff;fill-opacity:1"><path
             d="m 0,0 h 4.108 c 2.749,0 4.541,2.163 4.541,6.116 0,3.953 -1.813,5.941 -4.696,5.941 H 0 Z m -2.118,13.87 h 6.356 c 4.085,0 6.595,-3.101 6.595,-7.623 0,-3.516 -1.53,-8.058 -6.682,-8.058 h -6.269 z"
             style="fill:#ffffff;fill-opacity:1;fill-rule:nonzero;stroke:none"
             id="path186"
             inkscape:connector-curvature="0" /></g><g
           id="g188"
           transform="translate(408.0107,193.166)"
           style="fill:#ffffff;fill-opacity:1"><path
             d="M 0,0 H 4.521 C 6.728,0 7.84,1.115 7.84,2.863 7.84,5.068 5.898,5.506 4.172,5.506 H 0 Z m 0,7.229 h 3.823 c 2.029,0 3.274,0.613 3.274,2.535 0,1.464 -0.896,2.293 -3.253,2.293 H 0 Z m -2.118,6.641 h 6.901 c 2.925,0 4.432,-1.813 4.432,-3.953 C 9.215,8.891 8.845,7.447 7.12,6.643 8.146,6.226 9.96,5.506 9.96,2.82 9.96,0.308 8.103,-1.811 4.63,-1.811 h -6.748 z"
             style="fill:#ffffff;fill-opacity:1;fill-rule:nonzero;stroke:none"
             id="path190"
             inkscape:connector-curvature="0" /></g><g
           id="g192"
           transform="translate(431.1338,191.3555)"
           style="fill:#ffffff;fill-opacity:1"><path
             d="m 0,0 h -2.121 v 6.311 l -5.915,9.37 h 2.467 l 4.497,-7.535 4.5,7.535 H 5.917 L 0,6.311 Z"
             style="fill:#ffffff;fill-opacity:1;fill-rule:nonzero;stroke:none"
             id="path194"
             inkscape:connector-curvature="0" /></g><g
           id="g196"
           transform="translate(456.0654,193.166)"
           style="fill:#ffffff;fill-opacity:1"><path
             d="m 0,0 h 4.108 c 2.749,0 4.543,2.163 4.543,6.116 0,3.953 -1.815,5.941 -4.698,5.941 H 0 Z m -2.118,13.87 h 6.356 c 4.085,0 6.595,-3.101 6.595,-7.623 0,-3.516 -1.53,-8.058 -6.682,-8.058 h -6.269 z"
             style="fill:#ffffff;fill-opacity:1;fill-rule:nonzero;stroke:none"
             id="path198"
             inkscape:connector-curvature="0" /></g><g
           id="g200"
           transform="translate(481.5283,197.7969)"
           style="fill:#ffffff;fill-opacity:1"><path
             d="M 0,0 -2.315,6.902 H -2.358 L -4.871,0 Z m -5.527,-1.877 -1.638,-4.564 h -2.181 l 5.895,15.68 h 2.403 L 4.63,-6.441 H 2.314 l -1.552,4.564 z"
             style="fill:#ffffff;fill-opacity:1;fill-rule:nonzero;stroke:none"
             id="path202"
             inkscape:connector-curvature="0" /></g><g
           id="g204"
           transform="translate(489.7168,207.0361)"
           style="fill:#ffffff;fill-opacity:1"><path
             d="M 0,0 H 12.732 V -1.877 H 7.423 V -15.681 H 5.305 V -1.877 H 0 Z"
             style="fill:#ffffff;fill-opacity:1;fill-rule:nonzero;stroke:none"
             id="path206"
             inkscape:connector-curvature="0" /></g><g
           id="g208"
           transform="translate(515.2725,197.7969)"
           style="fill:#ffffff;fill-opacity:1"><path
             d="M 0,0 -2.315,6.902 H -2.357 L -4.871,0 Z m -5.526,-1.877 -1.639,-4.564 h -2.181 l 5.895,15.68 h 2.403 L 4.63,-6.441 H 2.316 l -1.552,4.564 z"
             style="fill:#ffffff;fill-opacity:1;fill-rule:nonzero;stroke:none"
             id="path210"
             inkscape:connector-curvature="0" /></g><g
           id="g212"
           transform="translate(538.894,193.166)"
           style="fill:#ffffff;fill-opacity:1"><path
             d="m 0,0 h 4.108 c 2.751,0 4.543,2.163 4.543,6.116 0,3.953 -1.815,5.941 -4.698,5.941 L 0,12.057 Z M -2.118,13.87 H 4.24 c 4.083,0 6.593,-3.101 6.593,-7.623 0,-3.516 -1.528,-8.058 -6.682,-8.058 h -6.269 z"
             style="fill:#ffffff;fill-opacity:1;fill-rule:nonzero;stroke:none"
             id="path214"
             inkscape:connector-curvature="0" /></g><g
           id="g216"
           transform="translate(559.3716,199.8936)"
           style="fill:#ffffff;fill-opacity:1"><path
             d="m 0,0 h 4.914 c 1.548,0 3.187,0.395 3.187,2.71 0,2.422 -1.768,2.619 -2.817,2.619 L 0,5.329 Z M 0,-8.538 H -2.118 V 7.143 h 7.249 c 2.578,0 5.155,-0.897 5.155,-4.214 0,-2.316 -1.18,-3.169 -2.185,-3.759 0.896,-0.371 1.792,-0.766 1.878,-2.947 l 0.13,-2.838 c 0.024,-0.874 0.133,-1.202 0.787,-1.573 v -0.35 H 8.298 c -0.306,0.96 -0.37,3.343 -0.37,3.931 0,1.288 -0.262,2.796 -2.797,2.796 H 0 Z"
             style="fill:#ffffff;fill-opacity:1;fill-rule:nonzero;stroke:none"
             id="path218"
             inkscape:connector-curvature="0" /></g><path
           d="m 579.739,191.355 h -2.118 v 15.681 h 2.118 z"
           style="fill:#ffffff;fill-opacity:1;fill-rule:nonzero;stroke:none"
           id="path220"
           inkscape:connector-curvature="0" /><g
           id="g222"
           transform="translate(597.8291,207.0361)"
           style="fill:#ffffff;fill-opacity:1"><path
             d="M 0,0 H 2.38 L -3.342,-15.681 H -5.59 L -11.312,0 h 2.358 l 4.476,-13.366 h 0.045 z"
             style="fill:#ffffff;fill-opacity:1;fill-rule:nonzero;stroke:none"
             id="path224"
             inkscape:connector-curvature="0" /></g><g
           id="g226"
           transform="translate(618.5449,191.3555)"
           style="fill:#ffffff;fill-opacity:1"><path
             d="M 0,0 H -11.574 V 15.681 H -0.152 V 13.804 H -9.456 V 8.996 h 8.583 V 7.119 H -9.456 V 1.877 H 0 Z"
             style="fill:#ffffff;fill-opacity:1;fill-rule:nonzero;stroke:none"
             id="path228"
             inkscape:connector-curvature="0" /></g><g
           id="g230"
           transform="translate(636.0898,207.0361)"
           style="fill:#ffffff;fill-opacity:1"><path
             d="m 0,0 h 2.055 v -15.681 h -2.38 l -7.973,12.667 h -0.043 v -12.667 h -2.054 V 0 h 2.513 l 7.839,-12.667 H 0 Z"
             style="fill:#ffffff;fill-opacity:1;fill-rule:nonzero;stroke:none"
             id="path232"
             inkscape:connector-curvature="0" /></g><g
           id="g234"
           transform="translate(658.4053,191.3555)"
           style="fill:#ffffff;fill-opacity:1"><path
             d="M 0,0 H -2.118 V 15.681 H 0 V 8.079 l 7.602,7.602 h 2.926 L 3.999,9.347 10.701,0 H 7.952 L 2.47,7.86 0,5.503 Z"
             style="fill:#ffffff;fill-opacity:1;fill-rule:nonzero;stroke:none"
             id="path236"
             inkscape:connector-curvature="0" /></g><g
           id="g238"
           transform="translate(685.9639,207.0361)"
           style="fill:#ffffff;fill-opacity:1"><path
             d="m 0,0 h 2.052 v -15.681 h -2.38 L -8.3,-3.014 h -0.043 v -12.667 h -2.054 V 0 h 2.512 l 7.84,-12.667 H 0 Z"
             style="fill:#ffffff;fill-opacity:1;fill-rule:nonzero;stroke:none"
             id="path240"
             inkscape:connector-curvature="0" /></g><g
           id="g242"
           transform="translate(702.9014,205.5723)"
           style="fill:#ffffff;fill-opacity:1"><path
             d="m 0,0 c -3.406,0 -5.46,-2.686 -5.46,-6.377 0,-3.692 2.054,-6.376 5.46,-6.376 3.406,0 5.46,2.684 5.46,6.376 C 5.46,-2.686 3.406,0 0,0 m 0,-14.631 c -5.852,0 -7.645,4.869 -7.645,8.254 0,3.387 1.793,8.255 7.645,8.255 5.853,0 7.645,-4.868 7.645,-8.255 0,-3.385 -1.792,-8.254 -7.645,-8.254"
             style="fill:#ffffff;fill-opacity:1;fill-rule:nonzero;stroke:none"
             id="path244"
             inkscape:connector-curvature="0" /></g><g
           id="g246"
           transform="translate(722.3809,191.3555)"
           style="fill:#ffffff;fill-opacity:1"><path
             d="m 0,0 h -2.227 l -4.084,15.681 h 2.294 L -1.09,2.926 h 0.042 L 2.467,15.681 H 4.783 L 8.298,2.926 h 0.046 l 2.927,12.755 h 2.336 L 9.479,0 H 7.25 L 3.671,12.992 H 3.625 Z"
             style="fill:#ffffff;fill-opacity:1;fill-rule:nonzero;stroke:none"
             id="path248"
             inkscape:connector-curvature="0" /></g><g
           id="g250"
           transform="translate(744.7246,193.2324)"
           style="fill:#ffffff;fill-opacity:1"><path
             d="M 0,0 H 7.952 V -1.877 H -2.117 V 13.804 H 0 Z"
             style="fill:#ffffff;fill-opacity:1;fill-rule:nonzero;stroke:none"
             id="path252"
             inkscape:connector-curvature="0" /></g><g
           id="g254"
           transform="translate(770.9873,191.3555)"
           style="fill:#ffffff;fill-opacity:1"><path
             d="M 0,0 H -11.573 V 15.681 H -0.15 V 13.804 H -9.455 V 8.996 h 8.584 V 7.119 H -9.455 V 1.877 H 0 Z"
             style="fill:#ffffff;fill-opacity:1;fill-rule:nonzero;stroke:none"
             id="path256"
             inkscape:connector-curvature="0" /></g><g
           id="g258"
           transform="translate(780.3262,193.166)"
           style="fill:#ffffff;fill-opacity:1"><path
             d="m 0,0 h 4.108 c 2.749,0 4.543,2.163 4.543,6.116 0,3.953 -1.814,5.941 -4.698,5.941 H 0 Z m -2.117,13.87 h 6.355 c 4.085,0 6.595,-3.101 6.595,-7.623 0,-3.516 -1.529,-8.058 -6.682,-8.058 h -6.268 z"
             style="fill:#ffffff;fill-opacity:1;fill-rule:nonzero;stroke:none"
             id="path260"
             inkscape:connector-curvature="0" /></g><g
           id="g262"
           transform="translate(805.3066,199.7412)"
           style="fill:#ffffff;fill-opacity:1"><path
             d="M 0,0 H 6.878 V -8.386 H 5.503 l -0.502,2.03 C 3.932,-7.84 1.965,-8.8 -0.176,-8.8 c -2.686,0 -3.996,0.983 -4.805,1.767 -2.401,2.272 -2.467,4.958 -2.467,6.62 0,3.82 2.316,8.122 7.427,8.122 2.925,0 6.18,-1.659 6.638,-5.175 H 4.563 c -0.677,2.729 -2.968,3.297 -4.694,3.297 -2.817,0 -5.133,-2.248 -5.133,-6.356 0,-3.187 1.049,-6.463 5.221,-6.463 0.783,0 2.051,0.088 3.209,1.006 1.375,1.089 1.726,2.489 1.726,4.171 H 0 Z"
             style="fill:#ffffff;fill-opacity:1;fill-rule:nonzero;stroke:none"
             id="path264"
             inkscape:connector-curvature="0" /></g><g
           id="g266"
           transform="translate(831.8086,191.3555)"
           style="fill:#ffffff;fill-opacity:1"><path
             d="M 0,0 H -11.573 V 15.681 H -0.152 V 13.804 H -9.456 V 8.996 h 8.584 V 7.119 H -9.456 V 1.877 H 0 Z"
             style="fill:#ffffff;fill-opacity:1;fill-rule:nonzero;stroke:none"
             id="path268"
             inkscape:connector-curvature="0" /></g></g></g></g></svg>